<svg id="visual" viewBox="0 0 675 900" width="675" height="900" xmlns="http://www.w3.org/2000/svg" xmlns:xlink="http://www.w3.org/1999/xlink" version="1.1"><g stroke-width="1" stroke-linejoin="bevel"><path d="M315.5 470L263 492L344.5 548.5Z" fill="#613dc0" stroke="#613dc0"></path><path d="M263 492L238 557.5L344.5 548.5Z" fill="#9634b6" stroke="#9634b6"></path><path d="M238 557.5L342.5 632L344.5 548.5Z" fill="#9634b6" stroke="#9634b6"></path><path d="M342.5 632L411 586.5L344.5 548.5Z" fill="#ff6268" stroke="#ff6268"></path><path d="M344.5 548.5L474 403L315.5 470Z" fill="#ffbf51" stroke="#ffbf51"></path><path d="M238 557.5L230 631L342.5 632Z" fill="#bc2da8" stroke="#bc2da8"></path><path d="M411 586.5L474 403L344.5 548.5Z" fill="#ff795b" stroke="#ff795b"></path><path d="M315.5 470L196 342.5L263 492Z" fill="#ef3887" stroke="#ef3887"></path><path d="M376.5 315.5L196 342.5L315.5 470Z" fill="#ff795b" stroke="#ff795b"></path><path d="M81.5 457L83.5 549.5L238 557.5Z" fill="#fe4b77" stroke="#fe4b77"></path><path d="M83.5 549.5L145.5 670L230 631Z" fill="#d92d98" stroke="#d92d98"></path><path d="M474 403L376.5 315.5L315.5 470Z" fill="#d92d98" stroke="#d92d98"></path><path d="M83.5 549.5L230 631L238 557.5Z" fill="#9634b6" stroke="#9634b6"></path><path d="M230 631L314.5 772.5L342.5 632Z" fill="#ff6268" stroke="#ff6268"></path><path d="M81.5 457L238 557.5L263 492Z" fill="#613dc0" stroke="#613dc0"></path><path d="M196 342.5L81.5 457L263 492Z" fill="#fe4b77" stroke="#fe4b77"></path><path d="M314.5 772.5L469 687L342.5 632Z" fill="#9634b6" stroke="#9634b6"></path><path d="M342.5 632L469 687L411 586.5Z" fill="#d92d98" stroke="#d92d98"></path><path d="M411 586.5L537.5 478L474 403Z" fill="#9634b6" stroke="#9634b6"></path><path d="M604.5 566.5L537.5 478L411 586.5Z" fill="#ff6268" stroke="#ff6268"></path><path d="M525.5 320.5L482 344.5L474 403Z" fill="#ffa94e" stroke="#ffa94e"></path><path d="M474 403L482 344.5L376.5 315.5Z" fill="#613dc0" stroke="#613dc0"></path><path d="M179 756.5L314.5 772.5L230 631Z" fill="#ef3887" stroke="#ef3887"></path><path d="M130.5 824.5L179 756.5L0 768.5Z" fill="#9634b6" stroke="#9634b6"></path><path d="M145.5 670L179 756.5L230 631Z" fill="#ff9152" stroke="#ff9152"></path><path d="M138.5 264L122.5 314.5L196 342.5Z" fill="#9634b6" stroke="#9634b6"></path><path d="M196 342.5L122.5 314.5L81.5 457Z" fill="#613dc0" stroke="#613dc0"></path><path d="M482 344.5L442 267L376.5 315.5Z" fill="#ff795b" stroke="#ff795b"></path><path d="M206 218L138.5 264L196 342.5Z" fill="#fe4b77" stroke="#fe4b77"></path><path d="M537.5 478L525.5 320.5L474 403Z" fill="#ffbf51" stroke="#ffbf51"></path><path d="M482 344.5L525.5 320.5L442 267Z" fill="#bc2da8" stroke="#bc2da8"></path><path d="M314.5 772.5L466 771.5L469 687Z" fill="#d92d98" stroke="#d92d98"></path><path d="M587.5 632L604.5 566.5L411 586.5Z" fill="#ff795b" stroke="#ff795b"></path><path d="M587.5 632L411 586.5L469 687Z" fill="#d92d98" stroke="#d92d98"></path><path d="M537.5 478L675 424L525.5 320.5Z" fill="#ef3887" stroke="#ef3887"></path><path d="M206 218L196 342.5L376.5 315.5Z" fill="#bc2da8" stroke="#bc2da8"></path><path d="M533.5 827.5L587.5 632L469 687Z" fill="#ffbf51" stroke="#ffbf51"></path><path d="M81.5 457L0 537.5L83.5 549.5Z" fill="#fe4b77" stroke="#fe4b77"></path><path d="M83.5 549.5L0 660L145.5 670Z" fill="#ff6268" stroke="#ff6268"></path><path d="M0 447L0 537.5L81.5 457Z" fill="#ff6268" stroke="#ff6268"></path><path d="M0 447L81.5 457L122.5 314.5Z" fill="#ff9152" stroke="#ff9152"></path><path d="M0 291.5L0 447L122.5 314.5Z" fill="#9634b6" stroke="#9634b6"></path><path d="M349.5 188L206 218L376.5 315.5Z" fill="#fe4b77" stroke="#fe4b77"></path><path d="M443 159.5L349.5 188L442 267Z" fill="#ff795b" stroke="#ff795b"></path><path d="M442 267L349.5 188L376.5 315.5Z" fill="#ff6268" stroke="#ff6268"></path><path d="M0 537.5L0 660L83.5 549.5Z" fill="#bc2da8" stroke="#bc2da8"></path><path d="M0 768.5L179 756.5L145.5 670Z" fill="#fe4b77" stroke="#fe4b77"></path><path d="M179 756.5L226 900L314.5 772.5Z" fill="#ef3887" stroke="#ef3887"></path><path d="M314.5 772.5L341.5 900L466 771.5Z" fill="#9634b6" stroke="#9634b6"></path><path d="M525.5 320.5L529.5 245L442 267Z" fill="#613dc0" stroke="#613dc0"></path><path d="M675 337.5L529.5 245L525.5 320.5Z" fill="#d92d98" stroke="#d92d98"></path><path d="M675 632L675 576.5L604.5 566.5Z" fill="#9634b6" stroke="#9634b6"></path><path d="M604.5 566.5L675 424L537.5 478Z" fill="#ffbf51" stroke="#ffbf51"></path><path d="M675 632L604.5 566.5L587.5 632Z" fill="#ff6268" stroke="#ff6268"></path><path d="M138.5 264L0 291.5L122.5 314.5Z" fill="#ff9152" stroke="#ff9152"></path><path d="M0 188L0 291.5L138.5 264Z" fill="#ff9152" stroke="#ff9152"></path><path d="M675 576.5L675 424L604.5 566.5Z" fill="#fe4b77" stroke="#fe4b77"></path><path d="M226 900L341.5 900L314.5 772.5Z" fill="#bc2da8" stroke="#bc2da8"></path><path d="M466 771.5L533.5 827.5L469 687Z" fill="#9634b6" stroke="#9634b6"></path><path d="M441 900L533.5 827.5L466 771.5Z" fill="#613dc0" stroke="#613dc0"></path><path d="M529.5 245L443 159.5L442 267Z" fill="#fe4b77" stroke="#fe4b77"></path><path d="M349.5 188L222 142.5L206 218Z" fill="#ff6268" stroke="#ff6268"></path><path d="M355.5 94.5L222 142.5L349.5 188Z" fill="#9634b6" stroke="#9634b6"></path><path d="M206 218L114.5 71.5L138.5 264Z" fill="#ff795b" stroke="#ff795b"></path><path d="M675 747.5L675 632L587.5 632Z" fill="#9634b6" stroke="#9634b6"></path><path d="M130.5 824.5L226 900L179 756.5Z" fill="#ef3887" stroke="#ef3887"></path><path d="M0 660L0 768.5L145.5 670Z" fill="#ff795b" stroke="#ff795b"></path><path d="M130.5 824.5L153.5 900L226 900Z" fill="#9634b6" stroke="#9634b6"></path><path d="M341.5 900L441 900L466 771.5Z" fill="#ffa94e" stroke="#ffa94e"></path><path d="M0 900L153.5 900L130.5 824.5Z" fill="#fe4b77" stroke="#fe4b77"></path><path d="M675 424L675 337.5L525.5 320.5Z" fill="#ffa94e" stroke="#ffa94e"></path><path d="M529.5 245L544.5 158.5L443 159.5Z" fill="#ff9152" stroke="#ff9152"></path><path d="M443 159.5L355.5 94.5L349.5 188Z" fill="#fe4b77" stroke="#fe4b77"></path><path d="M675 199L544.5 158.5L529.5 245Z" fill="#bc2da8" stroke="#bc2da8"></path><path d="M460 0L373.5 0L355.5 94.5Z" fill="#ffbf51" stroke="#ffbf51"></path><path d="M533.5 827.5L675 747.5L587.5 632Z" fill="#bc2da8" stroke="#bc2da8"></path><path d="M608.5 900L675 747.5L533.5 827.5Z" fill="#ff795b" stroke="#ff795b"></path><path d="M114.5 71.5L206 218L222 142.5Z" fill="#ff9152" stroke="#ff9152"></path><path d="M114.5 71.5L0 188L138.5 264Z" fill="#ff9152" stroke="#ff9152"></path><path d="M243 0L114.5 71.5L222 142.5Z" fill="#bc2da8" stroke="#bc2da8"></path><path d="M441 900L608.5 900L533.5 827.5Z" fill="#ffbf51" stroke="#ffbf51"></path><path d="M0 768.5L0 900L130.5 824.5Z" fill="#ff6268" stroke="#ff6268"></path><path d="M675 337.5L675 199L529.5 245Z" fill="#9634b6" stroke="#9634b6"></path><path d="M373.5 0L243 0L355.5 94.5Z" fill="#ff9152" stroke="#ff9152"></path><path d="M675 199L675 159.5L544.5 158.5Z" fill="#613dc0" stroke="#613dc0"></path><path d="M355.5 94.5L243 0L222 142.5Z" fill="#ffbf51" stroke="#ffbf51"></path><path d="M355.5 94.5L443 159.5L460 0Z" fill="#ff6268" stroke="#ff6268"></path><path d="M460 0L443 159.5L544.5 158.5Z" fill="#bc2da8" stroke="#bc2da8"></path><path d="M608.5 900L675 900L675 747.5Z" fill="#ffbf51" stroke="#ffbf51"></path><path d="M0 0L0 80.5L114.5 71.5Z" fill="#ffa94e" stroke="#ffa94e"></path><path d="M114.5 71.5L0 80.5L0 188Z" fill="#d92d98" stroke="#d92d98"></path><path d="M560.5 0L460 0L544.5 158.5Z" fill="#ff9152" stroke="#ff9152"></path><path d="M243 0L126.5 0L114.5 71.5Z" fill="#ff9152" stroke="#ff9152"></path><path d="M675 159.5L560.5 0L544.5 158.5Z" fill="#ff795b" stroke="#ff795b"></path><path d="M126.5 0L0 0L114.5 71.5Z" fill="#ff9152" stroke="#ff9152"></path><path d="M675 159.5L675 0L560.5 0Z" fill="#ffa94e" stroke="#ffa94e"></path></g></svg>